<svg xmlns="http://www.w3.org/2000/svg" viewBox="0 0 1100 500"><path fill="#a05a2c" d="M10 170h40v110H10zM50 170h40v110H50zM90 170h40v110H90zM130 170h40v110h-40zM170 170.25h40v109.5h-40zM210 170.5h40v109h-40zM250 170.75h40v108.5h-40zM290 171h40v108h-40zM330 171.25h40v107.5h-40zM610 173h40v104h-40zM650 173.25h40v103.5h-40zM690 173.5h40v103h-40zM730 173.75h40v102.5h-40zM770 174h40v102h-40zM810 174.25h40v101.5h-40zM850 174.5h40v101h-40zM890 174.75h40v100.5h-40zM930 175h40v100h-40zM970 175.25h40v99.5h-40z"/><path fill="#a05a2c" d="M1009.701 175.5h40v99h-40zM370 171.5h40v107h-40zM410 171.75h40v106.5h-40zM450 172h40v106h-40zM490 172.25h40v105.5h-40zM530 172.5h40v105h-40zM570 172.75h40v104.5h-40z"/><path fill="#28170b" d="M100 165h20v122h-20zM380 165h20v119h-20zM860 170h20v110h-20z"/><path fill="#999" d="M740 170h20v111h-20z"/><path fill="gray" d="M739.5 145.88h21.181V170H739.5zM96.497 137.147h26.864v28.985H96.497zM376.001 136.79h26.864v28.985h-26.864zM855.603 141.229h26.864v28.985h-26.864zM96.141 286.21h26.864v28.985H96.141zM376.739 283.871h26.864v28.985h-26.864zM857.017 279.697h26.864v28.985h-26.864z"/></svg>